<svg xmlns="http://www.w3.org/2000/svg" id="mermaid-1560398401559" width="100%" height="100%" viewBox="-50 -10 650 406" style="max-width:650px"><style>#mermaid-1560398401559 .actor{stroke:#ccf;fill:#ececff}#mermaid-1560398401559 text.actor{fill:#000;stroke:none}#mermaid-1560398401559 .actor-line{stroke:gray}#mermaid-1560398401559 .messageLine0{stroke-width:1.5;stroke-dasharray:&apos;2 2&apos;;stroke:#333}#mermaid-1560398401559 #arrowhead{fill:#333}#mermaid-1560398401559 #crosshead path{fill:#333!important;stroke:#333!important}#mermaid-1560398401559 .messageText{fill:#333;stroke:none}</style><style>#mermaid-1560398401559{color:rgba(0,0,0,.65)}</style><g><line id="actor240" x1="75" x2="75" y1="5" y2="395" stroke="#999" stroke-width=".5" class="actor-line"/><rect width="150" height="65" x="0" y="0" fill="#eaeaea" stroke="#666" class="actor" rx="3" ry="3"/><text x="75" y="32.5" alignment-baseline="central" class="actor" dominant-baseline="central" style="text-anchor:middle;font-size:14px;font-family:Open-Sans,sans-serif"><tspan x="75" dy="0">User</tspan></text></g><g><line id="actor241" x1="275" x2="275" y1="5" y2="395" stroke="#999" stroke-width=".5" class="actor-line"/><rect width="150" height="65" x="200" y="0" fill="#eaeaea" stroke="#666" class="actor" rx="3" ry="3"/><text x="275" y="32.5" alignment-baseline="central" class="actor" dominant-baseline="central" style="text-anchor:middle;font-size:14px;font-family:Open-Sans,sans-serif"><tspan x="275" dy="0">Vue.js SPA</tspan></text></g><g><line id="actor242" x1="475" x2="475" y1="5" y2="395" stroke="#999" stroke-width=".5" class="actor-line"/><rect width="150" height="65" x="400" y="0" fill="#eaeaea" stroke="#666" class="actor" rx="3" ry="3"/><text x="475" y="32.5" alignment-baseline="central" class="actor" dominant-baseline="central" style="text-anchor:middle;font-size:14px;font-family:Open-Sans,sans-serif"><tspan x="475" dy="0">Okta</tspan></text></g><defs><marker id="arrowhead" markerHeight="4" markerWidth="6" orient="auto" refX="5" refY="2"><path d="M 0,0 V 4 L6,2 Z"/></marker></defs><defs><marker id="crosshead" markerHeight="8" markerWidth="15" orient="auto" refX="16" refY="4"><path fill="#000" stroke="#000" stroke-width="1" d="M 9,2 V 6 L16,4 Z" style="stroke-dasharray:0,0"/><path fill="none" stroke="#000" stroke-width="1" d="M 0,1 L 6,7 M 6,1 L 0,7" style="stroke-dasharray:0,0"/></marker></defs><g><text x="175" y="93" class="messageText" style="text-anchor:middle">1. Click: Login</text><line x1="75" x2="275" y1="100" y2="100" stroke="#000" stroke-width="2" marker-end="url(#arrowhead)" class="messageLine0" style="fill:none"/></g><g><text x="175" y="128" class="messageText" style="text-anchor:middle">2. Redirect</text><line x1="275" x2="75" y1="135" y2="135" stroke="#000" stroke-width="2" marker-end="url(#arrowhead)" class="messageLine0" style="fill:none"/></g><g><text x="275" y="163" class="messageText" style="text-anchor:middle">3. Redirect to Login</text><line x1="75" x2="475" y1="170" y2="170" stroke="#000" stroke-width="2" marker-end="url(#arrowhead)" class="messageLine0" style="fill:none"/></g><g><text x="275" y="198" class="messageText" style="text-anchor:middle">4. Return Login Form</text><line x1="475" x2="75" y1="205" y2="205" stroke="#000" stroke-width="2" marker-end="url(#arrowhead)" class="messageLine0" style="fill:none"/></g><g><text x="275" y="233" class="messageText" style="text-anchor:middle">5. Submit Credentials</text><line x1="75" x2="475" y1="240" y2="240" stroke="#000" stroke-width="2" marker-end="url(#arrowhead)" class="messageLine0" style="fill:none"/></g><g><text x="275" y="268" class="messageText" style="text-anchor:middle">6. Redirect with Token</text><line x1="475" x2="75" y1="275" y2="275" stroke="#000" stroke-width="2" marker-end="url(#arrowhead)" class="messageLine0" style="fill:none"/></g><g><text x="175" y="303" class="messageText" style="text-anchor:middle">7. Redirect to with ID Token</text><line x1="75" x2="275" y1="310" y2="310" stroke="#000" stroke-width="2" marker-end="url(#arrowhead)" class="messageLine0" style="fill:none"/></g><g><rect width="150" height="65" x="0" y="330" fill="#eaeaea" stroke="#666" class="actor" rx="3" ry="3"/><text x="75" y="362.5" alignment-baseline="central" class="actor" dominant-baseline="central" style="text-anchor:middle;font-size:14px;font-family:Open-Sans,sans-serif"><tspan x="75" dy="0">User</tspan></text></g><g><rect width="150" height="65" x="200" y="330" fill="#eaeaea" stroke="#666" class="actor" rx="3" ry="3"/><text x="275" y="362.5" alignment-baseline="central" class="actor" dominant-baseline="central" style="text-anchor:middle;font-size:14px;font-family:Open-Sans,sans-serif"><tspan x="275" dy="0">Vue.js SPA</tspan></text></g><g><rect width="150" height="65" x="400" y="330" fill="#eaeaea" stroke="#666" class="actor" rx="3" ry="3"/><text x="475" y="362.5" alignment-baseline="central" class="actor" dominant-baseline="central" style="text-anchor:middle;font-size:14px;font-family:Open-Sans,sans-serif"><tspan x="475" dy="0">Okta</tspan></text></g></svg>